<svg id="Layer_1" enable-background="new 0 0 509.833 509.833" height="512" viewBox="0 0 509.833 509.833" width="512" xmlns="http://www.w3.org/2000/svg"><g><path d="m360.208 361.885c13.195 13.195 34.588 13.195 47.782 0 13.195-13.195 13.195-34.587 0-47.782l-135.31-135.311-11.175-75.637-37.978-37.978c-51.135-51.135-134.041-51.135-185.176 0-51.135 51.135-51.135 134.041 0 185.176l13.962 13.962 203.431 198.436c14.168 14.168 37.139 14.168 51.308 0 14.168-14.168 14.168-37.139 0-51.308l-.003-.018.01.011c14.168 14.168 37.14 14.168 51.308 0 14.168-14.168 14.168-37.139 0-51.308" fill="#ffdad6"/><path d="m35.402 68.23 319.918 345.92c-14.244 11.38-35.069 10.48-48.264-2.714l-.01-.01.003.018c14.168 14.168 14.168 37.139 0 51.308-14.168 14.168-37.14 14.168-51.308 0l-203.431-198.436-13.962-13.962c-50.131-50.131-51.109-130.794-2.946-182.124z" fill="#ffeceb"/><path d="m174.665 472.094c14.551 14.551 38.144 14.551 52.695 0l26.655-26.655c14.551-14.551 14.551-38.144 0-52.695-14.551-14.551-38.144-14.551-52.695 0l-26.655 26.655c-14.551 14.551-14.551 38.143 0 52.695z" fill="#f9c2ca"/><path d="m121.969 419.397c14.551 14.551 38.144 14.551 52.695 0l47.18-47.18c14.551-14.551 14.551-38.144 0-52.695-14.551-14.551-38.144-14.551-52.695 0l-47.18 47.18c-14.552 14.551-14.552 38.144 0 52.695z" fill="#f9c2ca"/><path d="m69.274 366.702c14.551 14.551 38.144 14.551 52.695 0l33.429-33.429c14.551-14.551 14.551-38.144 0-52.695-14.551-14.551-38.144-14.551-52.695 0l-33.429 33.429c-14.552 14.551-14.552 38.144 0 52.695z" fill="#ffa8b4"/><path d="m174.669 419.402 47.18-47.18c14.406-14.406 14.541-37.667.424-52.25l-99.853 99.853c14.582 14.118 37.843 13.983 52.249-.423z" fill="#ffa8b4"/><path d="m404.222 310.338 69.152-65.475c48.612-48.612 48.612-127.427 0-176.039-48.612-48.612-127.427-48.612-176.039 0l-93.566 90.778c-16.505 15.971-16.722 42.368-.482 58.608 16.053 16.053 42.08 16.053 58.134 0l13.559-13.559c6.483-6.483 16.993-6.485 23.478-.004z" fill="#f9c2ca"/><path d="m404.222 310.338 69.152-65.393c48.612-48.612 48.612-127.427 0-176.039-.008-.008-.015-.015-.023-.022l-155.373 155.373z" fill="#ffa8b4"/></g></svg>